<svg xmlns="http://www.w3.org/2000/svg" xmlns:xlink="http://www.w3.org/1999/xlink" version="1.1" width="223px" height="225px" style="shape-rendering:geometricPrecision; text-rendering:geometricPrecision; image-rendering:optimizeQuality; fill-rule:evenodd; clip-rule:evenodd">
<g><path style="opacity:1" fill="#fdfdfb00" d="M -0.5,-0.5 C 58.1667,-0.5 116.833,-0.5 175.5,-0.5C 175.5,3.16667 175.5,6.83333 175.5,10.5C 175.167,10.5 174.833,10.5 174.5,10.5C 116.336,9.50096 58.0024,9.16763 -0.5,9.5C -0.5,6.16667 -0.5,2.83333 -0.5,-0.5 Z"/></g>
<g><path style="opacity:1" fill="#e5c960" d="M 175.5,-0.5 C 176.167,-0.5 176.833,-0.5 177.5,-0.5C 177.5,6.83333 177.5,14.1667 177.5,21.5C 177.167,21.5 176.833,21.5 176.5,21.5C 176.815,17.6286 176.482,13.9619 175.5,10.5C 175.5,6.83333 175.5,3.16667 175.5,-0.5 Z"/></g>
<g><path style="opacity:1" fill="#fbbe09" d="M 177.5,-0.5 C 192.5,-0.5 207.5,-0.5 222.5,-0.5C 222.5,14.5 222.5,29.5 222.5,44.5C 215.167,44.5 207.833,44.5 200.5,44.5C 200.666,37.4921 200.5,30.4921 200,23.5C 199.617,22.944 199.117,22.6107 198.5,22.5C 191.5,22.5 184.5,22.5 177.5,22.5C 177.5,22.1667 177.5,21.8333 177.5,21.5C 177.5,14.1667 177.5,6.83333 177.5,-0.5 Z"/></g>
<g><path style="opacity:1" fill="#2d5186" d="M 174.5,10.5 C 175.423,14.0641 175.756,17.7307 175.5,21.5C 174.799,18.4371 174.132,15.2704 173.5,12C 117.167,11.3333 60.8333,11.3333 4.5,12C 3.82881,12.9862 3.82881,14.1529 4.5,15.5C 3.88258,15.6107 3.38258,15.944 3,16.5C 2.50003,40.4977 2.33337,64.4977 2.5,88.5C 3.5,88.5 4.5,88.5 5.5,88.5C 5.5,86.1667 5.5,83.8333 5.5,81.5C 6.72065,82.0283 7.88732,82.695 9,83.5C 10.7932,80.7047 12.9598,78.2047 15.5,76C 17.0657,75.235 18.3991,75.4017 19.5,76.5C 12.4817,81.186 6.81508,87.186 2.5,94.5C 1.50204,66.6716 1.1687,38.6716 1.5,10.5C 59.1667,10.5 116.833,10.5 174.5,10.5 Z"/></g>
<g><path style="opacity:1" fill="#616847" d="M 174.5,10.5 C 174.833,10.5 175.167,10.5 175.5,10.5C 176.482,13.9619 176.815,17.6286 176.5,21.5C 176.167,21.5 175.833,21.5 175.5,21.5C 175.756,17.7307 175.423,14.0641 174.5,10.5 Z"/></g>
<g><path style="opacity:1" fill="#a8c6e6" d="M -0.5,9.5 C 58.0024,9.16763 116.336,9.50096 174.5,10.5C 116.833,10.5 59.1667,10.5 1.5,10.5C 1.1687,38.6716 1.50204,66.6716 2.5,94.5C 1.79105,95.404 0.791047,95.7373 -0.5,95.5C -0.5,66.8333 -0.5,38.1667 -0.5,9.5 Z"/></g>
<g><path style="opacity:1" fill="#1e4fa3" d="M 4.5,15.5 C 5.49739,37.327 5.83072,59.327 5.5,81.5C 5.5,83.8333 5.5,86.1667 5.5,88.5C 4.5,88.5 3.5,88.5 2.5,88.5C 2.33337,64.4977 2.50003,40.4977 3,16.5C 3.38258,15.944 3.88258,15.6107 4.5,15.5 Z"/></g>
<g><path style="opacity:1" fill="#19519b" d="M 175.5,21.5 C 175.833,21.5 176.167,21.5 176.5,21.5C 176.5,22.5 176.5,23.5 176.5,24.5C 179.572,24.1826 182.572,24.5159 185.5,25.5C 186.32,27.1112 187.654,27.7778 189.5,27.5C 191.686,33.7984 193.019,40.4651 193.5,47.5C 195.816,44.5735 197.316,44.9068 198,48.5C 201.288,48.3416 204.788,48.3416 208.5,48.5C 208.173,58.6806 208.506,68.6806 209.5,78.5C 210.624,83.1632 208.957,85.9965 204.5,87C 203.748,87.6708 203.414,88.5041 203.5,89.5C 193.264,93.4519 182.931,97.1186 172.5,100.5C 170.08,100.708 167.747,100.374 165.5,99.5C 164.193,93.612 164.193,87.7787 165.5,82C 163.593,80.878 161.593,80.0447 159.5,79.5C 154.152,75.1931 149.318,75.8598 145,81.5C 142.054,86.8939 139.221,92.2272 136.5,97.5C 130.287,97.7415 127.787,94.7415 129,88.5C 125.97,85.1309 123.303,81.4642 121,77.5C 120.329,76.7476 119.496,76.4142 118.5,76.5C 110.422,70.3168 101.422,68.8168 91.5,72C 82.9446,75.4433 75.6113,80.61 69.5,87.5C 67.2776,87.822 65.4443,87.1554 64,85.5C 63.8762,87.9357 64.3762,90.269 65.5,92.5C 64.5,92.5 63.5,92.5 62.5,92.5C 62.5,93.5 62.5,94.5 62.5,95.5C 51.0749,95.2434 39.7416,95.7434 28.5,97C 27.9415,96.2753 27.6082,95.4419 27.5,94.5C 28.762,91.978 29.4287,89.3113 29.5,86.5C 29.2104,80.2103 25.8771,76.8769 19.5,76.5C 18.3991,75.4017 17.0657,75.235 15.5,76C 12.9598,78.2047 10.7932,80.7047 9,83.5C 7.88732,82.695 6.72065,82.0283 5.5,81.5C 5.83072,59.327 5.49739,37.327 4.5,15.5C 3.82881,14.1529 3.82881,12.9862 4.5,12C 60.8333,11.3333 117.167,11.3333 173.5,12C 174.132,15.2704 174.799,18.4371 175.5,21.5 Z"/></g>
<g><path style="opacity:1" fill="#3c4540" d="M 177.5,22.5 C 184.5,22.5 191.5,22.5 198.5,22.5C 198.5,29.8333 198.5,37.1667 198.5,44.5C 197.833,37.9881 197.167,31.3214 196.5,24.5C 190.036,23.8694 183.703,23.2027 177.5,22.5 Z"/></g>
<g><path style="opacity:1" fill="#d6ba52" d="M 198.5,22.5 C 199.117,22.6107 199.617,22.944 200,23.5C 200.5,30.4921 200.666,37.4921 200.5,44.5C 207.833,44.5 215.167,44.5 222.5,44.5C 222.5,44.8333 222.5,45.1667 222.5,45.5C 218.5,45.5 214.5,45.5 210.5,45.5C 206.4,45.7633 202.4,45.4299 198.5,44.5C 198.5,37.1667 198.5,29.8333 198.5,22.5 Z"/></g>
<g><path style="opacity:1" fill="#1f518f" d="M 176.5,21.5 C 176.833,21.5 177.167,21.5 177.5,21.5C 177.5,21.8333 177.5,22.1667 177.5,22.5C 183.703,23.2027 190.036,23.8694 196.5,24.5C 197.167,31.3214 197.833,37.9881 198.5,44.5C 201.684,46.4136 205.351,47.0803 209.5,46.5C 209.5,57.1667 209.5,67.8333 209.5,78.5C 208.506,68.6806 208.173,58.6806 208.5,48.5C 204.788,48.3416 201.288,48.3416 198,48.5C 197.316,44.9068 195.816,44.5735 193.5,47.5C 193.019,40.4651 191.686,33.7984 189.5,27.5C 187.654,27.7778 186.32,27.1112 185.5,25.5C 182.572,24.5159 179.572,24.1826 176.5,24.5C 176.5,23.5 176.5,22.5 176.5,21.5 Z"/></g>
<g><path style="opacity:1" fill="#f5fafb00" d="M 27.5,53.5 C 33.5,50.8333 39.5,48.1667 45.5,45.5C 50.0802,43.6254 54.5802,41.6254 59,39.5C 67.4059,41.5499 69.7393,46.5499 66,54.5C 56.4044,67.4019 43.571,72.9019 27.5,71C 22.9938,69.6653 20.3271,66.6653 19.5,62C 21.6825,58.6526 24.3491,55.8193 27.5,53.5 Z"/></g>
<g><path style="opacity:1" fill="#f8fcfc" d="M 210.5,45.5 C 214.5,45.5 218.5,45.5 222.5,45.5C 222.5,105.167 222.5,164.833 222.5,224.5C 218.5,224.5 214.5,224.5 210.5,224.5C 210.5,214.5 210.5,204.5 210.5,194.5C 210.833,165.159 210.5,135.826 209.5,106.5C 203.259,108.875 197.259,111.542 191.5,114.5C 178.065,118.444 165.899,124.777 155,133.5C 152.821,138.908 153.321,144.075 156.5,149C 158.5,149.667 160.5,149.667 162.5,149C 163.716,147.26 165.382,146.26 167.5,146C 172.37,141.791 177.203,137.624 182,133.5C 183.261,133.759 184.261,134.426 185,135.5C 188.037,151.26 182.537,163.094 168.5,171C 159.333,176.541 151.5,175.041 145,166.5C 140.197,158.73 136.363,150.563 133.5,142C 121.268,144.135 108.934,146.135 96.5,148C 91.1087,148.692 85.7753,148.359 80.5,147C 76.7012,144.203 73.2012,141.036 70,137.5C 67.562,132.733 64.7287,128.233 61.5,124C 57.8333,123.333 54.1667,123.333 50.5,124C 48.8839,124.615 47.5505,125.615 46.5,127C 48.8718,132.243 51.3718,137.41 54,142.5C 55.3968,149.452 55.7301,156.452 55,163.5C 49.3403,171.325 42.8403,178.325 35.5,184.5C 28.868,186.664 22.2014,186.83 15.5,185C 12.1261,181.557 10.2928,177.39 10,172.5C 9.33333,167.833 9.33333,163.167 10,158.5C 10.9025,157.299 12.0692,156.465 13.5,156C 20.7491,155.458 26.9158,152.625 32,147.5C 33.9833,143.041 33.6499,138.708 31,134.5C 27.0636,128.947 22.897,123.613 18.5,118.5C 16.9707,122.523 15.1373,126.523 13,130.5C 10.5838,133.423 7.75045,135.757 4.5,137.5C 2.83333,137.5 1.16667,137.5 -0.5,137.5C -0.5,123.5 -0.5,109.5 -0.5,95.5C 0.791047,95.7373 1.79105,95.404 2.5,94.5C 6.81508,87.186 12.4817,81.186 19.5,76.5C 25.8771,76.8769 29.2104,80.2103 29.5,86.5C 26.9645,90.3548 25.9645,94.6882 26.5,99.5C 38.7512,97.883 51.0845,97.0496 63.5,97C 65.6466,93.8615 67.6466,90.6948 69.5,87.5C 75.6113,80.61 82.9446,75.4433 91.5,72C 101.422,68.8168 110.422,70.3168 118.5,76.5C 128.136,87.745 127.803,98.745 117.5,109.5C 114.386,112.375 110.719,114.209 106.5,115C 98.0906,115.093 89.7573,115.76 81.5,117C 79.0216,118.938 78.8549,121.105 81,123.5C 85.9766,127.33 91.6433,128.996 98,128.5C 105.315,128.253 112.481,127.086 119.5,125C 122.239,123.974 124.572,122.474 126.5,120.5C 127.167,120.5 127.5,120.167 127.5,119.5C 131.656,112.715 134.656,105.381 136.5,97.5C 139.221,92.2272 142.054,86.8939 145,81.5C 149.318,75.8598 154.152,75.1931 159.5,79.5C 164.441,87.3877 164.774,95.5544 160.5,104C 160.833,104.5 161.167,105 161.5,105.5C 165.184,103.617 168.851,101.95 172.5,100.5C 182.931,97.1186 193.264,93.4519 203.5,89.5C 205.701,88.4336 208.035,87.767 210.5,87.5C 210.5,73.5 210.5,59.5 210.5,45.5 Z"/></g>
<g><path style="opacity:1" fill="#30558a" d="M 27.5,53.5 C 24.3491,55.8193 21.6825,58.6526 19.5,62C 20.3271,66.6653 22.9938,69.6653 27.5,71C 43.571,72.9019 56.4044,67.4019 66,54.5C 69.7393,46.5499 67.4059,41.5499 59,39.5C 54.5802,41.6254 50.0802,43.6254 45.5,45.5C 49.1545,42.8498 52.8212,40.1831 56.5,37.5C 66.7195,38.2648 70.8862,43.9314 69,54.5C 65.6039,57.3928 62.7706,60.7261 60.5,64.5C 55.8148,66.0035 51.4814,68.1702 47.5,71C 40.6389,72.0391 33.8055,73.2057 27,74.5C 24.0567,70.4076 20.2233,69.4076 15.5,71.5C 16.8392,67.6415 17.6725,63.6415 18,59.5C 20.8065,57.6053 23.1398,55.2719 25,52.5C 25.6708,53.2524 26.5041,53.5858 27.5,53.5 Z"/></g>
<g><path style="opacity:1" fill="#37547b" d="M 198.5,44.5 C 202.4,45.4299 206.4,45.7633 210.5,45.5C 210.5,59.5 210.5,73.5 210.5,87.5C 208.035,87.767 205.701,88.4336 203.5,89.5C 203.414,88.5041 203.748,87.6708 204.5,87C 208.957,85.9965 210.624,83.1632 209.5,78.5C 209.5,67.8333 209.5,57.1667 209.5,46.5C 205.351,47.0803 201.684,46.4136 198.5,44.5 Z"/></g>
<g><path style="opacity:1" fill="#335583" d="M 98.5,88.5 C 103.631,88.606 104.797,90.9394 102,95.5C 98.0283,99.0891 93.5283,100.756 88.5,100.5C 87.3691,98.9255 87.2025,97.2588 88,95.5C 91.6515,93.2673 95.1515,90.934 98.5,88.5 Z"/></g>
<g><path style="opacity:1" fill="#1c4e96" d="M 100.5,90.5 C 101.782,91.7082 101.782,93.0416 100.5,94.5C 97.6612,96.4203 94.6612,98.0869 91.5,99.5C 88.8152,99.2917 88.1485,98.125 89.5,96C 92.9905,93.588 96.6571,91.7547 100.5,90.5 Z"/></g>
<g><path style="opacity:1" fill="#2a538c" d="M 118.5,76.5 C 119.496,76.4142 120.329,76.7476 121,77.5C 123.303,81.4642 125.97,85.1309 129,88.5C 127.787,94.7415 130.287,97.7415 136.5,97.5C 134.656,105.381 131.656,112.715 127.5,119.5C 128.326,115.187 129.66,111.02 131.5,107C 130.886,104.146 130.219,101.313 129.5,98.5C 128.675,97.6143 127.675,97.281 126.5,97.5C 125.431,100.26 124.431,103.093 123.5,106C 123.833,106.333 124.167,106.667 124.5,107C 121.249,108.098 118.583,110.098 116.5,113C 116.833,113.333 117.167,113.667 117.5,114C 112.505,115.993 107.505,117.827 102.5,119.5C 99.258,119.054 95.758,118.72 92,118.5C 88.6194,118.332 85.4527,118.999 82.5,120.5C 84.169,124.278 86.8356,125.278 90.5,123.5C 93.8647,124.075 97.1981,124.742 100.5,125.5C 102.962,124.636 105.129,123.303 107,121.5C 108.314,122.313 109.481,123.313 110.5,124.5C 111.541,122.009 112.374,122.009 113,124.5C 113.671,121.829 115.337,120.163 118,119.5C 120.792,120.216 123.626,120.549 126.5,120.5C 124.572,122.474 122.239,123.974 119.5,125C 112.481,127.086 105.315,128.253 98,128.5C 91.6433,128.996 85.9766,127.33 81,123.5C 78.8549,121.105 79.0216,118.938 81.5,117C 89.7573,115.76 98.0906,115.093 106.5,115C 110.719,114.209 114.386,112.375 117.5,109.5C 127.803,98.745 128.136,87.745 118.5,76.5 Z"/></g>
<g><path style="opacity:1" fill="#2e5388" d="M 69.5,87.5 C 67.6466,90.6948 65.6466,93.8615 63.5,97C 51.0845,97.0496 38.7512,97.883 26.5,99.5C 25.9645,94.6882 26.9645,90.3548 29.5,86.5C 29.4287,89.3113 28.762,91.978 27.5,94.5C 27.6082,95.4419 27.9415,96.2753 28.5,97C 39.7416,95.7434 51.0749,95.2434 62.5,95.5C 62.5,94.5 62.5,93.5 62.5,92.5C 63.5,92.5 64.5,92.5 65.5,92.5C 64.3762,90.269 63.8762,87.9357 64,85.5C 65.4443,87.1554 67.2776,87.822 69.5,87.5 Z"/></g>
<g><path style="opacity:1" fill="#294f84" d="M 159.5,79.5 C 161.593,80.0447 163.593,80.878 165.5,82C 164.193,87.7787 164.193,93.612 165.5,99.5C 167.747,100.374 170.08,100.708 172.5,100.5C 168.851,101.95 165.184,103.617 161.5,105.5C 161.167,105 160.833,104.5 160.5,104C 164.774,95.5544 164.441,87.3877 159.5,79.5 Z"/></g>
<g><path style="opacity:1" fill="#62c2ca" d="M 1.5,192.5 C 1.5,174.5 1.5,156.5 1.5,138.5C 2.5,138.5 3.5,138.5 4.5,138.5C 5.4959,138.586 6.32924,138.252 7,137.5C 7.66667,138.167 8.33333,138.833 9,139.5C 10.7398,138.284 11.7398,136.618 12,134.5C 13.5655,135.061 14.8989,134.394 16,132.5C 16.0536,129.139 17.0536,126.139 19,123.5C 20,124.5 21,125.5 22,126.5C 24.8111,130.985 27.6444,135.485 30.5,140C 29.7466,141.742 29.7466,143.742 30.5,146C 28.3853,148.229 26.052,150.229 23.5,152C 18.3164,152.499 13.4831,153.999 9,156.5C 7.72176,163.127 7.22176,169.793 7.5,176.5C 9.69761,179.533 11.6976,182.7 13.5,186C 20.1283,187.735 26.795,187.902 33.5,186.5C 34.7133,186.253 35.38,185.586 35.5,184.5C 42.8403,178.325 49.3403,171.325 55,163.5C 55.7301,156.452 55.3968,149.452 54,142.5C 51.3718,137.41 48.8718,132.243 46.5,127C 47.5505,125.615 48.8839,124.615 50.5,124C 54.1667,123.333 57.8333,123.333 61.5,124C 64.7287,128.233 67.562,132.733 70,137.5C 73.2012,141.036 76.7012,144.203 80.5,147C 85.7753,148.359 91.1087,148.692 96.5,148C 108.934,146.135 121.268,144.135 133.5,142C 136.363,150.563 140.197,158.73 145,166.5C 151.5,175.041 159.333,176.541 168.5,171C 182.537,163.094 188.037,151.26 185,135.5C 184.261,134.426 183.261,133.759 182,133.5C 177.203,137.624 172.37,141.791 167.5,146C 165.382,146.26 163.716,147.26 162.5,149C 160.5,149.667 158.5,149.667 156.5,149C 153.321,144.075 152.821,138.908 155,133.5C 165.899,124.777 178.065,118.444 191.5,114.5C 191.435,114.938 191.601,115.272 192,115.5C 196.037,113.72 200.204,112.22 204.5,111C 205.917,108.174 207.417,108.007 209,110.5C 209.667,137.167 209.667,163.833 209,190.5C 208.308,191.025 207.808,191.692 207.5,192.5C 138.795,193.826 70.1286,193.826 1.5,192.5 Z"/></g>
<g><path style="opacity:1" fill="#19519e" d="M 127.5,119.5 C 127.5,120.167 127.167,120.5 126.5,120.5C 123.626,120.549 120.792,120.216 118,119.5C 115.337,120.163 113.671,121.829 113,124.5C 112.374,122.009 111.541,122.009 110.5,124.5C 109.481,123.313 108.314,122.313 107,121.5C 105.129,123.303 102.962,124.636 100.5,125.5C 97.1981,124.742 93.8647,124.075 90.5,123.5C 86.8356,125.278 84.169,124.278 82.5,120.5C 85.4527,118.999 88.6194,118.332 92,118.5C 95.758,118.72 99.258,119.054 102.5,119.5C 107.505,117.827 112.505,115.993 117.5,114C 117.167,113.667 116.833,113.333 116.5,113C 118.583,110.098 121.249,108.098 124.5,107C 124.167,106.667 123.833,106.333 123.5,106C 124.431,103.093 125.431,100.26 126.5,97.5C 127.675,97.281 128.675,97.6143 129.5,98.5C 130.219,101.313 130.886,104.146 131.5,107C 129.66,111.02 128.326,115.187 127.5,119.5 Z"/></g>
<g><path style="opacity:1" fill="#b6e2eb" d="M -0.5,137.5 C 1.16667,137.5 2.83333,137.5 4.5,137.5C 4.5,137.833 4.5,138.167 4.5,138.5C 3.5,138.5 2.5,138.5 1.5,138.5C 1.5,156.5 1.5,174.5 1.5,192.5C 1.5,193.167 1.5,193.833 1.5,194.5C 0.833333,194.5 0.166667,194.5 -0.5,194.5C -0.5,175.5 -0.5,156.5 -0.5,137.5 Z"/></g>
<g><path style="opacity:1" fill="#7abfc3" d="M 35.5,184.5 C 35.38,185.586 34.7133,186.253 33.5,186.5C 26.795,187.902 20.1283,187.735 13.5,186C 11.6976,182.7 9.69761,179.533 7.5,176.5C 7.22176,169.793 7.72176,163.127 9,156.5C 13.4831,153.999 18.3164,152.499 23.5,152C 26.052,150.229 28.3853,148.229 30.5,146C 29.7466,143.742 29.7466,141.742 30.5,140C 27.6444,135.485 24.8111,130.985 22,126.5C 21,125.5 20,124.5 19,123.5C 17.0536,126.139 16.0536,129.139 16,132.5C 14.8989,134.394 13.5655,135.061 12,134.5C 11.7398,136.618 10.7398,138.284 9,139.5C 8.33333,138.833 7.66667,138.167 7,137.5C 6.32924,138.252 5.4959,138.586 4.5,138.5C 4.5,138.167 4.5,137.833 4.5,137.5C 7.75045,135.757 10.5838,133.423 13,130.5C 15.1373,126.523 16.9707,122.523 18.5,118.5C 22.897,123.613 27.0636,128.947 31,134.5C 33.6499,138.708 33.9833,143.041 32,147.5C 26.9158,152.625 20.7491,155.458 13.5,156C 12.0692,156.465 10.9025,157.299 10,158.5C 9.33333,163.167 9.33333,167.833 10,172.5C 10.2928,177.39 12.1261,181.557 15.5,185C 22.2014,186.83 28.868,186.664 35.5,184.5 Z"/></g>
<g><path style="opacity:1" fill="#6eb1b5" d="M 210.5,194.5 C 140.833,194.5 71.1667,194.5 1.5,194.5C 1.5,193.833 1.5,193.167 1.5,192.5C 70.1286,193.826 138.795,193.826 207.5,192.5C 207.808,191.692 208.308,191.025 209,190.5C 209.667,163.833 209.667,137.167 209,110.5C 207.417,108.007 205.917,108.174 204.5,111C 200.204,112.22 196.037,113.72 192,115.5C 191.601,115.272 191.435,114.938 191.5,114.5C 197.259,111.542 203.259,108.875 209.5,106.5C 210.5,135.826 210.833,165.159 210.5,194.5 Z"/></g>
<g><path style="opacity:1" fill="#636363" d="M -0.5,194.5 C 0.166667,194.5 0.833333,194.5 1.5,194.5C 1.5,204.5 1.5,214.5 1.5,224.5C 0.833333,224.5 0.166667,224.5 -0.5,224.5C -0.5,214.5 -0.5,204.5 -0.5,194.5 Z"/></g>
<g><path style="opacity:1" fill="#040606" d="M 1.5,194.5 C 71.1667,194.5 140.833,194.5 210.5,194.5C 210.5,204.5 210.5,214.5 210.5,224.5C 140.833,224.5 71.1667,224.5 1.5,224.5C 1.5,214.5 1.5,204.5 1.5,194.5 Z"/></g>
<g><path style="opacity:1" fill="#c9c9c9" d="M 59.5,202.5 C 58.8333,202.5 58.5,202.167 58.5,201.5C 59.8149,200.524 61.1482,199.524 62.5,198.5C 63.521,199.002 63.6877,199.668 63,200.5C 61.8873,201.305 60.7206,201.972 59.5,202.5 Z"/></g>
<g><path style="opacity:1" fill="#535453" d="M 58.5,201.5 C 58.5,202.167 58.8333,202.5 59.5,202.5C 61.1667,203.167 62.8333,203.833 64.5,204.5C 61.5,204.5 58.5,204.5 55.5,204.5C 55.0618,204.565 54.7284,204.399 54.5,204C 56.133,203.52 57.4664,202.687 58.5,201.5 Z"/></g>
<g><path style="opacity:1" fill="#5f5f5e" d="M 122.5,204.5 C 119.287,204.19 116.287,204.523 113.5,205.5C 112.957,205.44 112.624,205.107 112.5,204.5C 115.98,203.194 119.313,203.194 122.5,204.5 Z"/></g>
<g><path style="opacity:1" fill="#5c5e5b" d="M 177.5,205.5 C 176.5,204.167 175.5,204.167 174.5,205.5C 171.8,204.058 172.134,203.392 175.5,203.5C 176.5,203.833 177.5,204.167 178.5,204.5C 178.376,205.107 178.043,205.44 177.5,205.5 Z"/></g>
<g><path style="opacity:1" fill="#666766" d="M 186.5,205.5 C 185.833,204.167 185.167,204.167 184.5,205.5C 181.8,204.058 182.134,203.392 185.5,203.5C 188.866,203.392 189.2,204.058 186.5,205.5 Z"/></g>
<g><path style="opacity:1" fill="#a9aaa9" d="M 122.5,204.5 C 122.649,205.552 122.483,206.552 122,207.5C 120.599,205.808 118.766,205.141 116.5,205.5C 116.5,207.167 116.5,208.833 116.5,210.5C 115.698,209.048 115.198,207.382 115,205.5C 114.825,210.019 114.325,214.353 113.5,218.5C 113.5,214.167 113.5,209.833 113.5,205.5C 116.287,204.523 119.287,204.19 122.5,204.5 Z"/></g>
<g><path style="opacity:1" fill="#dfdfe0" d="M 116.5,210.5 C 118.199,210.34 119.866,210.506 121.5,211C 120.956,211.717 120.289,212.217 119.5,212.5C 118.432,211.566 117.099,211.232 115.5,211.5C 115.198,214.059 115.532,216.393 116.5,218.5C 119.044,218.896 121.211,218.229 123,216.5C 123.74,217.749 123.573,218.749 122.5,219.5C 119.287,219.81 116.287,219.477 113.5,218.5C 114.325,214.353 114.825,210.019 115,205.5C 115.198,207.382 115.698,209.048 116.5,210.5 Z"/></g>
<g><path style="opacity:1" fill="#858685" d="M 119.5,212.5 C 118.5,212.5 117.5,212.5 116.5,212.5C 116.5,214.5 116.5,216.5 116.5,218.5C 115.532,216.393 115.198,214.059 115.5,211.5C 117.099,211.232 118.432,211.566 119.5,212.5 Z"/></g>
<g><path style="opacity:1" fill="#2d2e2d" d="M 31.5,217.5 C 29.9217,220.422 27.5884,221.089 24.5,219.5C 24.6236,218.893 24.9569,218.56 25.5,218.5C 26.2506,219.573 27.2506,219.74 28.5,219C 27.2309,216.861 27.2309,214.695 28.5,212.5C 30.2623,213.688 31.2623,215.355 31.5,217.5 Z"/></g>
<g><path style="opacity:1" fill="#cdcece" d="M 55.5,204.5 C 58.5,204.5 61.5,204.5 64.5,204.5C 64.631,205.239 64.4643,205.906 64,206.5C 62.3005,205.594 60.4672,205.261 58.5,205.5C 58.5,207.167 58.5,208.833 58.5,210.5C 65.1667,211.167 65.1667,211.833 58.5,212.5C 58.5,214.5 58.5,216.5 58.5,218.5C 60.5,218.5 62.5,218.5 64.5,218.5C 61.5,219.833 58.5,219.833 55.5,218.5C 56.7973,213.934 56.7973,209.267 55.5,204.5 Z"/></g>
<g><path style="opacity:1" fill="#c7c8c8" d="M 31.5,217.5 C 31.2623,215.355 30.2623,213.688 28.5,212.5C 27.2309,214.695 27.2309,216.861 28.5,219C 27.2506,219.74 26.2506,219.573 25.5,218.5C 25.7768,213.767 25.4435,209.1 24.5,204.5C 27.8622,203.1 31.0289,203.433 34,205.5C 35.0405,208.636 34.2072,211.136 31.5,213C 32.845,215.722 34.845,217.722 37.5,219C 36.8921,219.87 36.0588,220.37 35,220.5C 33.8261,219.456 32.6594,218.456 31.5,217.5 Z"/></g>
<g><path style="opacity:1" fill="#141413" d="M 27.5,205.5 C 31.909,204.899 33.2424,206.566 31.5,210.5C 30.2638,211.246 28.9305,211.579 27.5,211.5C 27.5,209.5 27.5,207.5 27.5,205.5 Z"/></g>
<g><path style="opacity:1" fill="#cecece" d="M 144.5,218.5 C 143.833,219.833 143.167,219.833 142.5,218.5C 143.939,214.61 145.106,210.61 146,206.5C 146.368,205.09 147.201,204.09 148.5,203.5C 150.603,208.646 152.603,213.812 154.5,219C 153.552,219.483 152.552,219.649 151.5,219.5C 151.839,214.759 149.839,213.426 145.5,215.5C 144.873,216.417 144.539,217.417 144.5,218.5 Z"/></g>
<g><path style="opacity:1" fill="#292929" d="M 147.5,207.5 C 149.074,209.102 149.741,211.102 149.5,213.5C 148.5,213.5 147.5,213.5 146.5,213.5C 146.517,211.435 146.85,209.435 147.5,207.5 Z"/></g>
<g><path style="opacity:1" fill="#cbcbcb" d="M 87.5,203.5 C 89.6648,203.116 91.3315,203.783 92.5,205.5C 90.674,205.92 88.674,205.92 86.5,205.5C 86.3505,206.552 86.5172,207.552 87,208.5C 89,209.833 91,211.167 93,212.5C 94.6505,217.068 93.1505,219.734 88.5,220.5C 85.6458,220.451 84.4791,219.118 85,216.5C 87.9733,219.439 90.4733,219.105 92.5,215.5C 90.1167,213.414 87.6167,211.414 85,209.5C 84.0339,206.66 84.8672,204.66 87.5,203.5 Z"/></g>
<g><path style="opacity:1" fill="#707070" d="M 55.5,218.5 C 58.5,219.833 61.5,219.833 64.5,218.5C 64.3691,217.624 64.7025,216.957 65.5,216.5C 66.5896,217.391 66.5896,218.391 65.5,219.5C 61.8333,220.833 58.1667,220.833 54.5,219.5C 54.6236,218.893 54.9569,218.56 55.5,218.5 Z"/></g>
<g><path style="opacity:1" fill="#6f6f6f" d="M 113.5,218.5 C 116.287,219.477 119.287,219.81 122.5,219.5C 119.313,220.806 115.98,220.806 112.5,219.5C 112.624,218.893 112.957,218.56 113.5,218.5 Z"/></g>
<g><path style="opacity:1" fill="#626362" d="M 142.5,218.5 C 143.167,219.833 143.833,219.833 144.5,218.5C 145.043,218.56 145.376,218.893 145.5,219.5C 143.833,220.833 142.167,220.833 140.5,219.5C 140.957,218.702 141.624,218.369 142.5,218.5 Z"/></g>
<g><path style="opacity:1" fill="#c6c6c6" d="M 177.5,205.5 C 176.357,208.976 176.19,212.642 177,216.5C 179.333,219.167 181.667,219.167 184,216.5C 184.499,212.848 184.665,209.182 184.5,205.5C 185.167,204.167 185.833,204.167 186.5,205.5C 186.665,209.182 186.499,212.848 186,216.5C 182.74,221.285 179.073,221.619 175,217.5C 174.501,213.514 174.334,209.514 174.5,205.5C 175.5,204.167 176.5,204.167 177.5,205.5 Z"/></g>
</svg>