<svg width="1792" height="1792" xmlns="http://www.w3.org/2000/svg">

 <g>
  <title>background</title>
  <rect fill="none" id="canvas_background" height="402" width="582" y="-1" x="-1"/>
 </g>
 <g>
  <title>Layer 1</title>
  <path fill="#ffffff" id="svg_1" d="m1791.533208,1414.775451q0,34.354756 -12.723984,89.704084t-26.720365,87.159287q-26.720365,63.619918 -155.232599,134.874226q-119.605445,64.892316 -236.666094,64.892316q-34.354756,0 -66.800914,-4.453394t-73.162905,-15.904979t-60.438922,-18.449776t-70.618109,-26.084166t-62.347519,-22.90317q-124.695039,-44.533942 -222.669712,-105.609064q-162.86699,-100.51947 -336.549365,-274.201846t-274.201846,-336.549365q-61.075121,-97.974673 -105.609064,-222.669712q-3.817195,-11.451585 -22.90317,-62.347519t-26.084166,-70.618109t-18.449776,-60.438922t-15.904979,-73.162905t-4.453394,-66.800914q0,-117.060649 64.892316,-236.666094q71.254308,-128.512234 134.874226,-155.232599q31.809959,-13.996382 87.159287,-26.720365t89.704084,-12.723984q17.813577,0 26.720365,3.817195q22.90317,7.63439 67.437113,96.702275q13.996382,24.175569 38.171951,68.709511t44.533942,80.797296t39.444349,68.073312q3.817195,5.089593 22.266971,31.809959t27.356565,45.170142t8.906788,36.263353q0,25.447967 -36.263353,63.619918t-78.888698,69.98191t-78.888698,67.437113t-36.263353,58.530324q0,11.451585 6.361992,28.628963t10.815386,26.084166t17.813577,30.537561t14.632581,24.175569q96.702275,174.318575 221.397314,299.013614t299.013614,221.397314q2.544797,1.272398 24.175569,14.632581t30.537561,17.813577t26.084166,10.815386t28.628963,6.361992q22.90317,0 58.530324,-36.263353t67.437113,-78.888698t69.98191,-78.888698t63.619918,-36.263353q17.813577,0 36.263353,8.906788t45.170142,27.356565t31.809959,22.266971q31.809959,19.085975 68.073312,39.444349t80.797296,44.533942t68.709511,38.171951q89.067885,44.533942 96.702275,67.437113q3.817195,8.906788 3.817195,26.720365z"/>
 </g>
</svg>