<svg width="1792" height="1792" xmlns="http://www.w3.org/2000/svg">

 <g>
  <title>background</title>
  <rect fill="none" id="canvas_background" height="402" width="582" y="-1" x="-1"/>
 </g>
 <g>
  <title>Layer 1</title>
  <path stroke="null" fill="#000018" id="svg_1" d="m1792.000308,1415.272991q0,34.363647 -12.727277,89.727302t-26.727281,87.181846q-26.727281,63.636384 -155.272778,134.909135q-119.636402,64.909112 -236.727349,64.909112q-34.363647,0 -66.818203,-4.454547t-73.181842,-15.909096t-60.454565,-18.454551t-70.636386,-26.090918t-62.363657,-22.909098q-124.727313,-44.545469 -222.727345,-105.636398q-162.909144,-100.545487 -336.636473,-274.272816t-274.272816,-336.636473q-61.090929,-98.000032 -105.636398,-222.727345q-3.818183,-11.454549 -22.909098,-62.363657t-26.090918,-70.636386t-18.454551,-60.454565t-15.909096,-73.181842t-4.454547,-66.818203q0,-117.090947 64.909112,-236.727349q71.27275,-128.545496 134.909135,-155.272778q31.818192,-14.000005 87.181846,-26.727281t89.727302,-12.727277q17.818188,0 26.727281,3.818183q22.909098,7.636366 67.454567,96.727304q14.000005,24.181826 38.181831,68.727295t44.545469,80.818208t39.454558,68.090931q3.818183,5.090911 22.272734,31.818192t27.363645,45.181833t8.909094,36.272739q0,25.454554 -36.272739,63.636384t-78.909116,70.000023t-78.909116,67.454567t-36.272739,58.545473q0,11.454549 6.363638,28.636373t10.818185,26.090918t17.818188,30.545464t14.636368,24.181826q96.727304,174.363693 221.454617,299.091006t299.091006,221.454617q2.545455,1.272728 24.181826,14.636368t30.545464,17.818188t26.090918,10.818185t28.636373,6.363638q22.909098,0 58.545473,-36.272739t67.454567,-78.909116t70.000023,-78.909116t63.636384,-36.272739q17.818188,0 36.272739,8.909094t45.181833,27.363645t31.818192,22.272734q31.818192,19.090915 68.090931,39.454558t80.818208,44.545469t68.727295,38.181831q89.090938,44.545469 96.727304,67.454567q3.818183,8.909094 3.818183,26.727281z"/>
 </g>
</svg>